<svg xmlns="http://www.w3.org/2000/svg" viewBox="0 0 281.25 90.03"><defs><style>.cls-1{fill:#06c755;}</style></defs><g id="레이어_2" data-name="레이어 2"><g id="레이어_1-2" data-name="레이어 1"><path class="cls-1" d="M60.14,74.52V87.07a3,3,0,0,1-3,3H3a3,3,0,0,1-3-3V3A3,3,0,0,1,3,0h17a3,3,0,0,1,3,3V68.6a3,3,0,0,0,3,3H57.18A3,3,0,0,1,60.14,74.52Z"/><path class="cls-1" d="M90.56,90h-17a3,3,0,0,1-3-3V3a3,3,0,0,1,3-3h17a3,3,0,0,1,3,3V87.07A3,3,0,0,1,90.56,90Z"/><path class="cls-1" d="M203,90H188.75a3,3,0,0,1-3-3V33.81h-.43L163.83,87.24a3,3,0,0,1-2.75,1.85H152a2.94,2.94,0,0,1-2.74-1.86L127.77,33.81h-.5V87.07a3,3,0,0,1-3,3H110.08a3,3,0,0,1-3-3V3a3,3,0,0,1,3-3h21.48a3,3,0,0,1,2.75,1.88l22,56h.5l22-55.95A3,3,0,0,1,181.51,0H203a3,3,0,0,1,3,3V87.07A3,3,0,0,1,203,90Z"/><path class="cls-1" d="M281.25,74.52V87.07a3,3,0,0,1-3,3H222.51a3,3,0,0,1-3-3V3a3,3,0,0,1,3-3h55.78a3,3,0,0,1,3,3V15.51a3,3,0,0,1-3,3H242.72a.28.28,0,0,0-.28.28v17.4a.22.22,0,0,0,.22.22H276a3,3,0,0,1,3,3V50.26a3,3,0,0,1-3,3H242.8a.36.36,0,0,0-.36.36V71.19a.38.38,0,0,0,.37.37h35.48A3,3,0,0,1,281.25,74.52Z"/></g></g></svg>